<svg version="1.1" id="Layer_1" xmlns="http://www.w3.org/2000/svg" xmlns:xlink="http://www.w3.org/1999/xlink" x="0px" y="0px"
	 width="100%" viewBox="0 0 1217 816" enable-background="new 0 0 1217 816" xml:space="preserve">
<path fill="#A8C1F0" opacity="1.000000" stroke="none" 
	d="
M695.000000,817.000000 
	C463.361725,817.000000 232.223465,817.000000 1.042597,817.000000 
	C1.042597,545.061829 1.042597,273.123627 1.042597,1.092717 
	C406.554993,1.092717 812.110046,1.092717 1217.832520,1.092717 
	C1217.832520,272.999908 1217.832520,544.999939 1217.832520,817.000000 
	C1043.790161,817.000000 869.645081,817.000000 695.000000,817.000000 
M619.925171,703.500000 
	C619.924438,649.673401 619.913452,595.846863 619.933777,542.020264 
	C619.936890,533.772339 622.661377,532.262573 630.038574,535.948303 
	C637.322632,539.587463 644.559265,543.423706 652.130493,546.366089 
	C671.210999,553.781311 691.144043,555.607178 711.509155,555.080688 
	C739.844971,554.348022 765.884644,546.539185 789.936401,531.652344 
	C805.724304,521.880432 817.830872,507.931885 830.832947,495.139343 
	C842.775330,483.389313 853.221619,470.102386 864.144348,457.336243 
	C879.718933,439.132935 895.118652,420.779999 910.608093,402.503693 
	C928.134399,381.824158 945.368591,360.942108 966.012146,343.087219 
	C991.599304,320.956482 1020.305908,312.740143 1053.111328,322.001953 
	C1079.500610,329.452362 1098.157593,345.482697 1104.527344,373.120087 
	C1109.997314,396.854401 1107.707153,420.224792 1098.120117,442.548645 
	C1089.646729,462.279266 1074.958496,475.846191 1054.021973,481.524078 
	C1026.324585,489.035431 999.154724,488.185333 972.826294,475.312378 
	C948.512146,463.424377 926.034546,449.248535 908.947815,427.723145 
	C906.830322,425.055542 904.407532,422.630249 902.037292,419.993744 
	C900.950500,420.904999 900.232239,421.353302 899.709839,421.968048 
	C890.013306,433.378479 880.259827,444.742004 870.690369,456.258331 
	C864.347534,463.891602 864.470459,463.990814 871.011292,471.657166 
	C871.442749,472.162811 871.777832,472.752594 872.222412,473.244843 
	C879.136047,480.898773 885.485718,489.183502 893.121643,496.034119 
	C903.624695,505.457001 914.989319,513.940491 926.190002,522.559753 
	C942.348206,534.994080 960.667480,543.437439 979.921021,549.608398 
	C1008.883972,558.891296 1038.099976,557.359314 1067.032715,549.277588 
	C1104.494141,538.813354 1132.351074,515.476074 1152.406860,482.781097 
	C1170.135010,453.880859 1176.625610,422.225098 1173.111450,388.439423 
	C1170.345825,361.849060 1161.649536,337.591095 1145.905029,315.925751 
	C1131.281250,295.802673 1113.536499,279.424683 1090.713989,268.806030 
	C1072.212891,260.197937 1052.906494,255.379807 1032.578979,253.786057 
	C1010.643860,252.066254 989.300415,254.452148 968.832336,262.325409 
	C959.105286,266.066986 949.973755,271.401611 940.697754,276.254181 
	C935.267151,279.095123 932.144409,277.454437 931.928528,271.182556 
	C931.888428,270.017334 931.921509,268.849609 931.921509,267.683044 
	C931.921753,194.356064 931.926636,121.029099 931.916077,47.702126 
	C931.914917,39.382481 929.547913,37.035679 921.193787,37.018784 
	C907.528381,36.991142 893.862793,37.001167 880.197327,37.002399 
	C869.904236,37.003326 868.033813,38.897671 868.033203,49.273445 
	C868.027222,143.431946 868.064392,237.590530 867.855530,331.748566 
	C867.847046,335.576599 866.452454,340.132538 864.121216,343.110504 
	C842.586731,370.618896 820.344788,397.578308 799.046387,425.265045 
	C784.552612,444.106140 769.204224,461.917633 749.868347,475.919708 
	C723.167419,495.255035 695.354248,493.813660 667.578186,478.952026 
	C645.889954,467.347748 632.053772,448.909332 624.555054,425.500092 
	C620.751709,413.627106 619.404236,401.709534 622.614929,389.622345 
	C630.309998,360.653290 646.776978,338.768158 674.772644,326.571930 
	C700.955811,315.165344 726.640076,316.129700 751.432983,330.569000 
	C768.075134,340.261322 783.029663,352.160706 796.013000,366.461090 
	C802.725525,373.854553 809.489868,381.201141 816.256165,388.545471 
	C817.919250,390.350677 819.494385,392.021759 821.847290,389.064514 
	C833.138062,374.874237 844.489868,360.731781 855.939087,346.669312 
	C857.659729,344.555939 857.744019,343.233978 855.804504,341.227722 
	C840.294006,325.183533 825.112122,308.813507 809.323181,293.050507 
	C803.133728,286.871216 796.012390,281.437286 788.685425,276.622772 
	C770.882507,264.924530 751.202026,258.256989 729.988220,255.681732 
	C705.211121,252.673950 680.858093,253.521423 656.940430,261.266693 
	C630.079041,269.965240 607.744568,285.341217 589.678650,306.901489 
	C569.249329,331.282288 556.606262,359.440735 556.429565,391.214447 
	C555.751099,513.200134 556.130798,635.191650 556.132690,757.181030 
	C556.132751,762.750488 558.859558,766.452026 564.261597,766.544067 
	C579.746094,766.808105 595.250732,766.861023 610.724854,766.332886 
	C617.940002,766.086731 619.895386,763.192383 619.909302,755.995544 
	C619.942505,738.830444 619.923096,721.665161 619.925171,703.500000 
M522.942261,457.381500 
	C523.905823,448.634766 525.657593,439.892181 525.703796,431.140625 
	C525.982239,378.317139 525.896484,325.491577 525.857239,272.666779 
	C525.852112,265.681580 523.063477,263.110901 516.032471,263.094696 
	C502.034790,263.062469 488.036957,263.081512 474.039246,263.102814 
	C463.939056,263.118195 461.989044,265.043854 461.988739,274.968842 
	C461.987183,326.960510 462.138000,378.952789 461.909271,430.943451 
	C461.837158,447.331848 454.270813,460.901978 441.483765,470.402893 
	C419.823975,486.496399 396.262238,491.334595 370.090637,480.468750 
	C345.468201,470.246033 331.110291,450.570984 331.102173,423.934418 
	C331.088196,377.941925 331.141510,331.949158 330.999054,285.957062 
	C330.957977,272.705139 322.043945,263.995880 308.976196,263.991913 
	C218.823959,263.964386 128.671722,263.975037 38.519497,263.989929 
	C31.555315,263.991089 29.010988,266.581543 28.984442,273.728790 
	C28.936779,286.559875 28.959917,299.391296 28.980776,312.222534 
	C28.998011,322.823242 30.970387,324.791229 41.465565,324.791534 
	C113.953964,324.793610 186.442352,324.793243 258.930756,324.800476 
	C266.755920,324.801239 269.071411,327.096252 269.074066,334.866699 
	C269.086212,370.694305 268.773407,406.526520 269.309174,442.346161 
	C269.441040,451.162201 271.213715,460.325928 274.137482,468.661438 
	C284.882141,499.293976 307.754791,518.326172 336.623230,530.934998 
	C352.635040,537.928406 369.530609,541.037109 387.003784,542.207153 
	C403.591431,543.317871 420.032898,542.737610 436.125977,539.212402 
	C456.327972,534.787109 473.673279,524.601196 489.168579,510.724365 
	C505.364258,496.220337 517.494995,479.503662 522.942261,457.381500 
z"/>
<path fill="#FEFEFF" opacity="1.000000" stroke="none" 
	d="
M619.925049,704.000000 
	C619.923096,721.665161 619.942505,738.830444 619.909302,755.995544 
	C619.895386,763.192383 617.940002,766.086731 610.724854,766.332886 
	C595.250732,766.861023 579.746094,766.808105 564.261597,766.544067 
	C558.859558,766.452026 556.132751,762.750488 556.132690,757.181030 
	C556.130798,635.191650 555.751099,513.200134 556.429565,391.214447 
	C556.606262,359.440735 569.249329,331.282288 589.678650,306.901489 
	C607.744568,285.341217 630.079041,269.965240 656.940430,261.266693 
	C680.858093,253.521423 705.211121,252.673950 729.988220,255.681732 
	C751.202026,258.256989 770.882507,264.924530 788.685425,276.622772 
	C796.012390,281.437286 803.133728,286.871216 809.323181,293.050507 
	C825.112122,308.813507 840.294006,325.183533 855.804504,341.227722 
	C857.744019,343.233978 857.659729,344.555939 855.939087,346.669312 
	C844.489868,360.731781 833.138062,374.874237 821.847290,389.064514 
	C819.494385,392.021759 817.919250,390.350677 816.256165,388.545471 
	C809.489868,381.201141 802.725525,373.854553 796.013000,366.461090 
	C783.029663,352.160706 768.075134,340.261322 751.432983,330.569000 
	C726.640076,316.129700 700.955811,315.165344 674.772644,326.571930 
	C646.776978,338.768158 630.309998,360.653290 622.614929,389.622345 
	C619.404236,401.709534 620.751709,413.627106 624.555054,425.500092 
	C632.053772,448.909332 645.889954,467.347748 667.578186,478.952026 
	C695.354248,493.813660 723.167419,495.255035 749.868347,475.919708 
	C769.204224,461.917633 784.552612,444.106140 799.046387,425.265045 
	C820.344788,397.578308 842.586731,370.618896 864.121216,343.110504 
	C866.452454,340.132538 867.847046,335.576599 867.855530,331.748566 
	C868.064392,237.590530 868.027222,143.431946 868.033203,49.273445 
	C868.033813,38.897671 869.904236,37.003326 880.197327,37.002399 
	C893.862793,37.001167 907.528381,36.991142 921.193787,37.018784 
	C929.547913,37.035679 931.914917,39.382481 931.916077,47.702126 
	C931.926636,121.029099 931.921753,194.356064 931.921509,267.683044 
	C931.921509,268.849609 931.888428,270.017334 931.928528,271.182556 
	C932.144409,277.454437 935.267151,279.095123 940.697754,276.254181 
	C949.973755,271.401611 959.105286,266.066986 968.832336,262.325409 
	C989.300415,254.452148 1010.643860,252.066254 1032.578979,253.786057 
	C1052.906494,255.379807 1072.212891,260.197937 1090.713989,268.806030 
	C1113.536499,279.424683 1131.281250,295.802673 1145.905029,315.925751 
	C1161.649536,337.591095 1170.345825,361.849060 1173.111450,388.439423 
	C1176.625610,422.225098 1170.135010,453.880859 1152.406860,482.781097 
	C1132.351074,515.476074 1104.494141,538.813354 1067.032715,549.277588 
	C1038.099976,557.359314 1008.883972,558.891296 979.921021,549.608398 
	C960.667480,543.437439 942.348206,534.994080 926.190002,522.559753 
	C914.989319,513.940491 903.624695,505.457001 893.121643,496.034119 
	C885.485718,489.183502 879.136047,480.898773 872.222412,473.244843 
	C871.777832,472.752594 871.442749,472.162811 871.011292,471.657166 
	C864.470459,463.990814 864.347534,463.891602 870.690369,456.258331 
	C880.259827,444.742004 890.013306,433.378479 899.709839,421.968048 
	C900.232239,421.353302 900.950500,420.904999 902.037292,419.993744 
	C904.407532,422.630249 906.830322,425.055542 908.947815,427.723145 
	C926.034546,449.248535 948.512146,463.424377 972.826294,475.312378 
	C999.154724,488.185333 1026.324585,489.035431 1054.021973,481.524078 
	C1074.958496,475.846191 1089.646729,462.279266 1098.120117,442.548645 
	C1107.707153,420.224792 1109.997314,396.854401 1104.527344,373.120087 
	C1098.157593,345.482697 1079.500610,329.452362 1053.111328,322.001953 
	C1020.305908,312.740143 991.599304,320.956482 966.012146,343.087219 
	C945.368591,360.942108 928.134399,381.824158 910.608093,402.503693 
	C895.118652,420.779999 879.718933,439.132935 864.144348,457.336243 
	C853.221619,470.102386 842.775330,483.389313 830.832947,495.139343 
	C817.830872,507.931885 805.724304,521.880432 789.936401,531.652344 
	C765.884644,546.539185 739.844971,554.348022 711.509155,555.080688 
	C691.144043,555.607178 671.210999,553.781311 652.130493,546.366089 
	C644.559265,543.423706 637.322632,539.587463 630.038574,535.948303 
	C622.661377,532.262573 619.936890,533.772339 619.933777,542.020264 
	C619.913452,595.846863 619.924438,649.673401 619.925049,704.000000 
M910.452454,78.986786 
	C916.441528,72.668159 917.760803,64.820564 913.886719,58.557827 
	C909.796448,51.945694 902.089294,48.599304 895.060791,50.568264 
	C887.733948,52.620796 883.486206,57.745525 882.428833,65.058495 
	C881.459595,71.762680 884.646851,77.178772 890.095703,80.762573 
	C896.799194,85.171532 903.607544,84.578934 910.452454,78.986786 
M596.814087,750.482361 
	C597.554199,749.817993 598.332581,749.191223 599.028503,748.483398 
	C605.669128,741.729004 605.712158,731.370605 599.141846,724.855652 
	C592.482605,718.252625 581.534790,718.541199 575.049988,725.490784 
	C569.881714,731.029480 569.357605,741.150269 573.930176,747.117432 
	C579.168030,753.953064 587.442932,755.350708 596.814087,750.482361 
z"/>
<path fill="#FEFEFF" opacity="1.000000" stroke="none" 
	d="
M522.845215,457.786774 
	C517.494995,479.503662 505.364258,496.220337 489.168579,510.724365 
	C473.673279,524.601196 456.327972,534.787109 436.125977,539.212402 
	C420.032898,542.737610 403.591431,543.317871 387.003784,542.207153 
	C369.530609,541.037109 352.635040,537.928406 336.623230,530.934998 
	C307.754791,518.326172 284.882141,499.293976 274.137482,468.661438 
	C271.213715,460.325928 269.441040,451.162201 269.309174,442.346161 
	C268.773407,406.526520 269.086212,370.694305 269.074066,334.866699 
	C269.071411,327.096252 266.755920,324.801239 258.930756,324.800476 
	C186.442352,324.793243 113.953964,324.793610 41.465565,324.791534 
	C30.970387,324.791229 28.998011,322.823242 28.980776,312.222534 
	C28.959917,299.391296 28.936779,286.559875 28.984442,273.728790 
	C29.010988,266.581543 31.555315,263.991089 38.519497,263.989929 
	C128.671722,263.975037 218.823959,263.964386 308.976196,263.991913 
	C322.043945,263.995880 330.957977,272.705139 330.999054,285.957062 
	C331.141510,331.949158 331.088196,377.941925 331.102173,423.934418 
	C331.110291,450.570984 345.468201,470.246033 370.090637,480.468750 
	C396.262238,491.334595 419.823975,486.496399 441.483765,470.402893 
	C454.270813,460.901978 461.837158,447.331848 461.909271,430.943451 
	C462.138000,378.952789 461.987183,326.960510 461.988739,274.968842 
	C461.989044,265.043854 463.939056,263.118195 474.039246,263.102814 
	C488.036957,263.081512 502.034790,263.062469 516.032471,263.094696 
	C523.063477,263.110901 525.852112,265.681580 525.857239,272.666779 
	C525.896484,325.491577 525.982239,378.317139 525.703796,431.140625 
	C525.657593,439.892181 523.905823,448.634766 522.845215,457.786774 
M43.165543,291.155151 
	C43.087162,292.810333 42.893051,294.469543 42.950512,296.119995 
	C43.194424,303.125183 47.685104,308.704651 54.855656,311.030151 
	C60.842442,312.971771 68.498283,310.642365 72.377876,305.698792 
	C76.786743,300.080780 77.335762,291.718689 73.704163,286.126312 
	C69.906693,280.278473 64.390701,277.480469 57.619968,278.271332 
	C50.461670,279.107483 45.372597,283.071167 43.165543,291.155151 
z"/>
<path fill="#ABC3F0" opacity="1.000000" stroke="none" 
	d="
M910.184082,79.237579 
	C903.607544,84.578934 896.799194,85.171532 890.095703,80.762573 
	C884.646851,77.178772 881.459595,71.762680 882.428833,65.058495 
	C883.486206,57.745525 887.733948,52.620796 895.060791,50.568264 
	C902.089294,48.599304 909.796448,51.945694 913.886719,58.557827 
	C917.760803,64.820564 916.441528,72.668159 910.184082,79.237579 
z"/>
<path fill="#ABC3F0" opacity="1.000000" stroke="none" 
	d="
M596.500122,750.679443 
	C587.442932,755.350708 579.168030,753.953064 573.930176,747.117432 
	C569.357605,741.150269 569.881714,731.029480 575.049988,725.490784 
	C581.534790,718.541199 592.482605,718.252625 599.141846,724.855652 
	C605.712158,731.370605 605.669128,741.729004 599.028503,748.483398 
	C598.332581,749.191223 597.554199,749.817993 596.500122,750.679443 
z"/>
<path fill="#ABC3F0" opacity="1.000000" stroke="none" 
	d="
M43.282318,290.754883 
	C45.372597,283.071167 50.461670,279.107483 57.619968,278.271332 
	C64.390701,277.480469 69.906693,280.278473 73.704163,286.126312 
	C77.335762,291.718689 76.786743,300.080780 72.377876,305.698792 
	C68.498283,310.642365 60.842442,312.971771 54.855656,311.030151 
	C47.685104,308.704651 43.194424,303.125183 42.950512,296.119995 
	C42.893051,294.469543 43.087162,292.810333 43.282318,290.754883 
z"/>
</svg>